<?xml version="1.0" encoding="utf-8"?>
<!-- Generator: Adobe Illustrator 22.1.0, SVG Export Plug-In . SVG Version: 6.00 Build 0)  -->
<svg version="1.1" id="Layer_1" xmlns="http://www.w3.org/2000/svg" xmlns:xlink="http://www.w3.org/1999/xlink" x="0px" y="0px"
	 viewBox="0 0 846 991" style="enable-background:new 0 0 846 991;" xml:space="preserve">
<style type="text/css">
	.st0{opacity:0.19;fill:#FFFFFF;}
	.st1{fill:none;stroke:#808080;stroke-width:1.5;stroke-miterlimit:10;}
	.st2{fill:none;stroke:#808080;stroke-width:1.5;stroke-miterlimit:10;stroke-dasharray:2.0238,2.0238;}
	.st3{fill:none;stroke:#808080;stroke-width:1.5;stroke-miterlimit:10;stroke-dasharray:2;}
	.st4{fill:#333333;}
	.st5{fill:none;stroke:#666666;stroke-width:3;stroke-miterlimit:10;}
	.st6{fill:#76777A;}
	.st7{fill:#231F20;}
	.st8{fill:#FFFFFF;}
	.st9{fill-rule:evenodd;clip-rule:evenodd;fill:#000001;}
	.st10{fill-rule:evenodd;clip-rule:evenodd;fill:none;stroke:#4D4D4D;stroke-width:2;stroke-miterlimit:10;}
</style>
<g>
	<path class="st0" d="M129,294.3c0,0-2.6-2.8,1.4-7.7c4-4.9,6.1-12.9,12.4-19.3s14-21.9,17.5-28.1c3.6-6.1,12.3-20.3,19.9-30.2
		c7.7-9.8,12-13.9,14.2-21c2.2-7,9.7-19.6,25.2-27.1c15.5-7.4,50.8-26.7,59.9-30.9c9.1-4.2,19.5-6.2,43.1-10.8
		c23.6-4.6,38.1-8.8,44.8-10.6c6.7-1.8,13.9-2.5,29.3,6.4c15.4,8.9,25.5,16.2,44.3,21.8c18.9,5.6,33.8,19.5,43.7,23.9
		c9.9,4.4,20.6,20.7,25.4,27.2c4.8,6.5,45.5,45.8,45.5,45.8l34.2,34.6c0,0-1.4,33.9-13.7,53.3c0,0-8.2,15.6-17.5,21.3
		s-18.5,13.2-30.6,15.4c-12.1,2.2-14.5,3.9-18.6-0.6c-4.1-4.6-3-6.9-7.2-7.1c-4.2-0.3-4.1-2.3-8.9-5.4s-11.7-9.6-12.5-3.7
		c-0.7,6-10.6,108.7-10.6,108.7s-3.1,45.3-1.3,81.6s3.2,89.5,3.4,94.3s-2,21.7-12.6,23.7c-10.6,2-39.2,0.2-58.5,8.1
		c-19.4,7.9-36.2,17-61.9,13.9s-44.4-8.8-65.1-10.2c-20.7-1.5-32.4-6.2-43.4-12.3c-11-6.2-18-25.4-18.1-41.9
		c-0.1-16.5,3.6-46.1,4.9-53.7s4.8-20,3.1-27.6s1.3-41.6-1.2-56.5s-1.8-45.1-1.8-54.3s3.5-29.5,0.8-38.7s-2.6-19.8-3.2-27.5
		c-0.6-7.8-1.6-9.1-1.6-9.1s-3.5,5.9-7,9.1c-3.4,3.2-10.5,1-17.7,0c-7.3-1-13.1-0.9-26.6-10.5S137.9,313.3,129,294.3z"/>
	<g>
		<g>
			<g>
				<path class="st1" d="M424,643.1c0,0,0.4,0,1,0"/>
				<path class="st2" d="M427,643c6.9-0.2,23.9-1,30.4-3c5.5-1.6,9.7-3.6,12-4.8"/>
				<path class="st1" d="M470.3,634.7c0.6-0.3,0.9-0.5,0.9-0.5"/>
			</g>
		</g>
		<path class="st3" d="M417.5,648c0,0,17.4-0.5,28.3-1.6s18.7-2.5,23.9-6.7"/>
		<path class="st3" d="M272.1,137.8c0,0,10.2-7.7,29.6-10c19.4-2.3,32.8-4.2,44.7-7.8c11.9-3.7,24-9.9,30.7-6.2"/>
		<path class="st3" d="M274.8,158.2c0,0,20.8-1.8,28.8-4.8c7.9-2.9,28.2-4.1,36.2-3.7"/>
		<path class="st3" d="M421.8,250.7c0,0,3.5-22.5,12.9-39.5s14.6-28.4,18.8-33.8c4.2-5.4,17.3-17.4,27.4-13.5
			c10,3.9,22.5,19.2,27,21.1"/>
		<path class="st3" d="M214.1,620.7c0,0,5.7,22.2,20.9,27.3s38.4,10.2,42.3,9.1c3.9-1.1,27.7,5.6,39,7c11.2,1.4,57.7,5.3,81.6-9.2
			c23.8-14.6,54.4-42.3,54.4-42.3s8.5,5,20,3.6"/>
		<path class="st3" d="M268.5,135.3c0,0-3.4,12,1.5,25.2s8.9,20.5,13.4,23.4"/>
		<path class="st3" d="M383.4,108.8c0,0,0.9,6.6-17.1,21.9c-18,15.3-29.3,27.8-48.9,38.5c-19.7,10.7-36.9,13.6-44.8,43.5
			c-7.9,30-12.7,63.2-14.7,92.9c-2,29.6-5.5,67.4-5.3,84.5c0.2,17,0,99.4,0,99.4s2,69.8,3.5,86.7s0.7,37.4,0.3,50.5
			c-0.3,13.1-6.9,31-6.9,31"/>
		<path class="st4" d="M507.8,356.2c0,0,11-20,21.7-30.3s56.3-62.6,56.3-62.6l-6-5.8c0,0-29.6,38.1-44.1,52.4s-25.8,26.2-29.8,32.2
			s-4.8,8.5-4.8,8.5L507.8,356.2z"/>
		<path class="st4" d="M409.2,123c0,0-19.8,18.1-36.4,30.4s-62.7,41.1-73.1,61.3S286,243,283.9,277.6c-2.1,34.7-6.1,17.7-7.2,108.9
			s-3,133.5-2.1,151.7c0.8,18.1,2.3,88.8,2.3,99.4c0,10.6-0.9,24.2-0.9,24.2l5.5,0.5l0.9-63.4c0,0-1.8-98.4-2.4-106.1
			s0.7-66.3,2.4-91.6c1.7-25.3,2.8-71.2,4.8-88.4c2-17.1,4.2-66.3,11.3-83.5s25.1-34,48.4-51.1s42.1-30.4,51.7-38.4
			c9.6-7.9,16.2-13.3,16.2-13.3L409.2,123z"/>
		<path class="st4" d="M255.8,141.9c0,0-6.4,10.7,0,37.1s10.1,35.6,9.4,46.3c0,0-12,67.8-12.8,105.6c-0.8,37.8-3.1,101.8-2.9,142.5
			s1.3,90.3,2.4,107.2c1.1,16.9-1.1,54.6-3.7,66.1c-2.6,11.5-2.2,9.8-6.2,8c0,0,9.5-33.3,5.4-64.5c-4.1-31.2-1.6-97.9-3.6-121.1
			c-2-23.2,1.4-64.7,1.7-82c0.3-17.3,3-41,4-52.4c0.9-11.4,4.1-69.7,6.2-82.6c2-13,11.1-29.6-2-56.2c-13-26.6-2.1-51.7-2.1-51.7
			L255.8,141.9z"/>
		<path class="st4" d="M132.1,283.9c0,0,12.6,27.5,20.2,34.6c7.6,7.1,19.7,20.3,27.9,23.2c8.1,2.9,9.9,3.8,15.8,4.7
			s12.6,0.5,12.6,0.5l-1.9,2.9c0,0-12.9,4.8-28.6-4.6s-30.6-21.6-39.6-40.9s-8-17.8-8-17.8l2.5-2.7"/>
		<path class="st5" d="M270.1,134.4c0,0,10-7,30-11s39-6,55-11s21.5-6.5,31.5-2.5s26,16,31,18s36,13,46,20s27,16,31,19s12,19,22,28
			s34,34,34,34l40,39c0,0,1,85-76,93c0,0,0.1,1-4.2-2.3s-6.1-8-9.2-8s-2.1-2.1-9.2-6.3c-7-4.2-10.8-4.9-10.8-4.9
			s-14.6,111.1-12.7,175.2c1.9,64.1,3.1,102.6,4,105.5s-1.2,16.4-3.5,21.4c-2.3,4.9-2.6,4.9-9.2,7.5s-39.7,0.7-63.4,11.3
			c-23.7,10.6-37.3,13.4-55.7,12c-18.3-1.4-54.7-10.3-64.8-10.3s-20.7-1.9-28.2-4.7c-7.5-2.8-15.7-7-20.2-9.4
			c-4.5-2.3-19.3-18.3-13.4-61.8s7.3-43,6.6-65.1c-0.7-22.1,2.3-39.7-0.9-55.2s-3.3-42.3-1.2-60.8c2.1-18.6,2.1-24.2-1.2-31.9
			s-1.9-32.4-1.9-32.4s-5.6,2.3-7,6.3c-1.4,4-5.4,5.9-12.2,3.8c-6.8-2.1-13.4-1.2-19.3-4c-5.9-2.8-24.9-11.3-35.2-29.4
			c-10.3-18.1-15-25.1-13.6-27.5c1.4-2.3,3.8-4.9,6.6-11c2.8-6.1,8.9-12.4,11.3-15.3c2.3-2.8,18.8-33.1,25.8-43.5s19-22.5,22.5-31.9
			c3.5-9.4,12.2-20,26.3-27.7C234.9,152.6,266.2,136.6,270.1,134.4z"/>
		<path class="st5" d="M378.7,107.8c0,0,3.2,3-11.4,17.2c-14.7,14.3-37.7,35.3-55,42.8c-17.3,7.5-34.2,15.1-40.3,32.6
			s-11.2,45.8-13.9,64.6c-2.6,18.7-8.4,97.6-8.6,118c-0.2,20.4,0,95.8,0,113.1s1.2,75.4,2.9,90.9s-0.4,40.8-2,49.9
			c-1.6,9.2-4.9,19.4-4.9,19.4"/>
		<path class="st5" d="M273.6,132.3c-0.4,0.2-4.5,10,1.2,25.9c5.7,15.9,12.5,22.6,12.5,22.6"/>
		<path class="st5" d="M372.2,119.9c0,0,7.5,4.9,14,7.3c6.5,2.4,13.7,10.8,25.3,12.6c11.6,1.8,28.9,6.1,39.9,13.2
			s16.1,10.8,16.1,10.8"/>
		<path class="st5" d="M498.8,172.1c0,0-7.2-3.9-11.1-5.9c-3.9-2-9.2-5.5-14.7-3.9c-5.5,1.6-19.6,2-30.2,25.5
			c-10.6,23.4-23,49.1-22,56.9c1,7.7,1.8,12.2,3.3,16.7s8.8,29.3,18.3,42.4s14.5,17.5,21.4,22.2c6.9,4.7,6.2,12.9,18.3,13.7"/>
		<path class="st5" d="M463.9,325.9c-21.1-30-20.9-97.3-20.9-97.3"/>
		<path class="st5" d="M463.9,232.2c0,0,6.9,46.1,4.8,62c-2.1,15.9,5.6,38.3,17.4,46.9"/>
		<path class="st5" d="M514.6,360.9c0,0,9.2-26,76-93"/>
		<path class="st5" d="M404.9,657.1c1-0.3,24.5-17.5,34.2-26.2s13-11.2,13-11.2l20.8,2.1"/>
		<path class="st5" d="M452,619.7c0,0,2.1-110.9,2.1-133.2s6.6-96.8,7.5-117.6c0.9-20.8,1.2-44.4,1.2-44.4"/>
		<path class="st5" d="M276.2,161.9c0,0,19.6-2,27.8-4.3c8.2-2.2,31.1-4.1,31.1-4.1"/>
		<path class="st5" d="M196.6,197.5c0,0-4.7,33.9-2.2,57.3s11.2,41.9,13.2,54.1s8,32.9,8,32.9"/>
		<path class="st5" d="M184.9,218.6c0,0-2.2,33.1,4.7,53.8s17.4,35.3,19.2,42.8"/>
		
			<rect x="371.8" y="574" transform="matrix(0.9918 -0.1277 0.1277 0.9918 -71.8601 55.9249)" class="st6" width="57" height="29.1"/>
		<path class="st7" d="M374.2,595.4l-0.9-6.9c-0.7-5.1,2.9-9.8,8-10.4l34.6-4.5c5.1-0.7,9.8,2.9,10.4,8l0.9,6.9
			c0.7,5.1-2.9,9.8-8,10.4l-34.6,4.5C379.5,604.1,374.9,600.5,374.2,595.4z"/>
		<g>
			<path class="st8" d="M416.1,589.6C416.1,589.6,416.1,589.6,416.1,589.6l-1.2,0.2c0,0-0.1,0-0.1,0s-0.1,0-0.1-0.1l-1.3-1.5
				l-0.9,1.7c0,0,0,0.1-0.1,0.1c0,0-0.1,0-0.1,0l-1.1,0.1c0,0-0.1,0-0.1,0c0,0,0-0.1,0-0.1l1.3-2.7c0,0,0-0.1,0-0.1s0-0.1,0-0.1
				l-1.8-2.1c0,0,0-0.1,0-0.1c0,0,0,0,0.1,0l1.1-0.1c0,0,0.1,0,0.1,0c0,0,0.1,0,0.1,0.1l1.2,1.3l0.8-1.6c0,0,0-0.1,0.1-0.1
				c0,0,0.1,0,0.1,0l1.1-0.1c0,0,0.1,0,0.1,0s0,0.1,0,0.1l-1.2,2.5c0,0,0,0.1,0,0.1c0,0,0,0.1,0,0.1L416.1,589.6
				C416.1,589.5,416.1,589.5,416.1,589.6z"/>
			<path class="st8" d="M421.4,588.9C421.4,588.9,421.4,588.9,421.4,588.9l-1.2,0.2c0,0-0.1,0-0.1,0c0,0-0.1,0-0.1-0.1l-1.3-1.5
				l-0.9,1.7c0,0,0,0.1-0.1,0.1c0,0-0.1,0-0.1,0l-1.1,0.1c0,0-0.1,0-0.1,0c0,0,0-0.1,0-0.1l1.3-2.7c0,0,0-0.1,0-0.1c0,0,0-0.1,0-0.1
				l-1.8-2.1c0,0,0-0.1,0-0.1c0,0,0,0,0.1,0l1.1-0.1c0,0,0.1,0,0.1,0c0,0,0.1,0,0.1,0.1l1.2,1.3l0.8-1.6c0,0,0-0.1,0.1-0.1
				c0,0,0.1,0,0.1,0l1.1-0.1c0,0,0.1,0,0.1,0c0,0,0,0.1,0,0.1l-1.2,2.5c0,0,0,0.1,0,0.1c0,0,0,0.1,0,0.1L421.4,588.9
				C421.4,588.8,421.4,588.8,421.4,588.9z"/>
			<path class="st8" d="M425.3,587.1c0,0,0.1,0,0.1,0c0,0,0,0.1,0.1,0.1l0.1,1c0,0,0,0.1,0,0.1c0,0-0.1,0-0.1,0.1l-3.3,0.4
				c-0.1,0-0.2,0-0.2-0.1l-0.7-5.1c0-0.1,0-0.2,0.1-0.2l1.1-0.1c0.1,0,0.2,0,0.2,0.1l0.5,3.8c0,0,0,0.1,0.1,0.1c0,0,0.1,0,0.1,0
				L425.3,587.1z"/>
		</g>
		<path class="st7" d="M388.8,589.1L388.8,589.1c-0.3-0.3,0.9,0.8,1.2,1.3c0.1,0.1,0.1,0.3,0,0.3l-2.8,0.4c-0.2,0-0.3-0.1-0.3-0.1
			c0,0-0.1-0.1-0.1-0.1c-1.8-2.2-2.9-2.5-5.2-2.9c-0.1,0-0.1-0.1-0.1-0.2c0.1-0.2,0.4-0.8,0.4-0.9c0,0,0.1-0.1,0.1-0.1
			c0.5-0.1,1-0.1,1.4-0.3c1.2-0.5,1.4-1.3,1.3-1.8c-0.1-0.8-1.3-1.1-3.2-0.8c-1.4,0.2-1.9,0.2-3.7,0.5c-0.7,0.1-1.6-0.2-2.4-1.3
			c-0.1-0.2,0-0.3,0.1-0.3c1.6-0.2,5-0.7,7.2-0.9c3.4-0.3,4.4,1,4.6,2.3c0.2,1.7-1,2.6-1.5,3.1C387,587.6,387.8,588.2,388.8,589.1
			L388.8,589.1z M381.9,585.7c0,0,0,0.1,0,0.1c0,0,0,0,0,0c-0.2,0.3-1.9,3-2.4,6c0,0.1-0.1,0.2-0.2,0.2c-0.3,0-1.8,0.2-2.5,0.3
			c-0.2,0-0.2-0.1-0.2-0.3c0.8-1.9,1.8-3.9,3.2-5.9c0.3-0.4,0.5-0.4,0.9-0.4c0.2,0,0.7-0.1,1-0.1
			C381.8,585.6,381.9,585.6,381.9,585.7L381.9,585.7z"/>
		<g>
			<path class="st6" d="M390.4,594.2l-14.2,1.8c-0.6,0.1-1.1-0.3-1.2-0.9l-1.8-14.1c-0.1-0.6,0.3-1.1,0.9-1.2l14.2-1.8
				c0.6-0.1,1.1,0.3,1.2,0.9l1.8,14.1C391.4,593.6,391,594.1,390.4,594.2L390.4,594.2z"/>
			<path class="st8" d="M381.5,586c0,0,0,0.1,0,0.1c0,0,0,0,0,0c-0.2,0.3-1.8,2.8-2.2,5.7c0,0.1-0.1,0.2-0.2,0.2
				c-0.2,0-1.7,0.2-2.4,0.3c-0.2,0-0.2-0.1-0.2-0.3c0.7-1.8,1.7-3.7,3-5.6c0.3-0.4,0.5-0.4,0.8-0.4c0.2,0,0.7-0.1,1-0.1
				C381.4,585.8,381.5,585.9,381.5,586L381.5,586z"/>
			<path class="st8" d="M388,589.2L388,589.2c-0.2-0.2,0.8,0.8,1.1,1.2c0.1,0.1,0.1,0.2,0,0.3l-2.6,0.3c-0.1,0-0.2-0.1-0.3-0.1
				c0,0,0-0.1-0.1-0.1c-1.7-2-2.7-2.4-4.9-2.7c-0.1,0-0.1-0.1-0.1-0.2c0.1-0.2,0.4-0.8,0.4-0.8c0,0,0.1-0.1,0.1-0.1
				c0.4-0.1,0.9-0.1,1.3-0.3c1.2-0.5,1.4-1.2,1.3-1.7c-0.1-0.8-1.2-1.1-3.1-0.8c-1.3,0.2-1.8,0.2-3.5,0.4c-0.7,0.1-1.5-0.2-2.3-1.2
				c-0.1-0.2,0-0.3,0.1-0.3c1.5-0.2,4.7-0.6,6.8-0.8c3.2-0.2,4.2,1,4.4,2.1c0.2,1.6-0.9,2.5-1.4,2.9
				C386.3,587.8,387.1,588.4,388,589.2L388,589.2z"/>
		</g>
		<path class="st6" d="M405,592.4l-8.7,1.1c-2.2,0.3-4.2-1.3-4.5-3.5l0,0c-0.3-2.2,1.3-4.2,3.5-4.5l8.7-1.1c2.2-0.3,4.2,1.3,4.5,3.5
			l0,0C408.8,590.1,407.3,592.1,405,592.4z"/>
		<path class="st8" d="M424.2,597.4l-44.7,5.8c-1.8,0.2-3.5-1.1-3.7-2.9l0,0c-0.2-1.8,1.1-3.5,2.9-3.7l46.2-6c1-0.1,1.9,0.6,2,1.6
			l0.2,1.5C427.3,595.5,426,597.1,424.2,597.4z"/>
		<path class="st6" d="M421.8,581.2l-26.9,3.5c-2,0.3-3.9-1.2-4.1-3.2l0,0c-0.3-2,1.2-3.9,3.2-4.1l26.9-3.5c2-0.3,3.9,1.2,4.1,3.2v0
			C425.2,579.1,423.8,580.9,421.8,581.2z"/>
		<g>
			<path class="st8" d="M423.4,579.4L423.4,579.4l-0.3-0.3l-0.2,0l0,0.3l-0.1,0l-0.1-0.7l0.3,0c0.1,0,0.1,0,0.2,0
				c0,0,0.1,0.1,0.1,0.1c0,0,0,0.1,0,0.1c0,0,0,0.1-0.1,0.1L423.4,579.4z M422.9,579.1l0.2,0c0.1,0,0.1,0,0.1-0.1c0,0,0-0.1,0-0.1
				c0,0,0-0.1,0-0.1c0,0-0.1,0-0.1,0l-0.2,0L422.9,579.1z"/>
			<path class="st8" d="M423,578.7c-0.2,0-0.4,0.3-0.4,0.5s0.3,0.4,0.5,0.4c0.2,0,0.4-0.3,0.4-0.5S423.2,578.7,423,578.7L423,578.7z
				 M423.1,579.7c-0.3,0-0.5-0.2-0.6-0.4c0-0.3,0.2-0.5,0.4-0.6c0.3,0,0.5,0.2,0.6,0.4C423.6,579.4,423.4,579.6,423.1,579.7
				L423.1,579.7z"/>
			<path class="st8" d="M413,577.3L413,577.3c-0.1-0.2-0.2-0.4-0.4-0.5s-0.4-0.2-0.6-0.2c-0.2,0-0.4,0-0.7,0c-0.1,0-1.1,0.1-1.1,0.1
				l-0.1,0l-0.3,4l0,0.5l1.2-0.2c0.1,0,0.7-0.1,0.9-0.2c0.2-0.1,0.4-0.3,0.6-0.4c0.2-0.2,0.3-0.4,0.4-0.6c0.1-0.2,0.2-0.4,0.2-0.6
				c0-0.2,0.1-0.4,0.1-0.6c0-0.2,0-0.4,0-0.6C413.1,577.8,413.1,577.5,413,577.3L413,577.3z M412.1,578.8c0,0.2-0.1,0.4-0.1,0.5
				c-0.1,0.2-0.2,0.3-0.3,0.4c-0.1,0.1-0.3,0.2-0.5,0.2l-0.1,0l0.2-2.2l0,0c0.1,0,0.1,0,0.2,0c0.2,0,0.4,0,0.4,0.1
				c0.1,0.1,0.2,0.3,0.2,0.5C412.1,578.5,412.1,578.6,412.1,578.8L412.1,578.8z"/>
			<path class="st8" d="M399.9,578.2c-0.2-0.1-0.4-0.1-0.9-0.1c-0.5,0.1-1,0.3-1.3,0.6c-0.5,0.5-0.8,1.4-0.7,2.3
				c0.1,1.2,0.9,1.8,1.9,1.7c0.4-0.1,0.8-0.2,0.9-0.3c0,0,0.1-1.1,0.1-1.1s-0.1,0.1-0.3,0.2c-0.2,0.1-0.4,0.1-0.6,0.2
				c-0.7,0.1-0.9-0.5-0.9-0.8c-0.1-0.5,0-1,0.3-1.3c0.2-0.2,0.4-0.3,0.7-0.4c0.3,0,0.4,0,0.6,0c0.1,0.1,0.4,0.2,0.4,0.2l0.1-1.1
				C400.1,578.3,400.1,578.2,399.9,578.2L399.9,578.2z"/>
			<path class="st8" d="M414.8,577.9c-0.3-0.1-0.5-0.2-0.5-0.4c0-0.2,0.1-0.3,0.4-0.3l0,0c0.2,0,0.4,0,0.6,0.1l0.2,0.1l0.2-1.1
				l-0.1-0.1c-0.3-0.1-0.6-0.1-0.9-0.1c-0.9,0.1-1.4,0.8-1.3,1.7c0.1,0.6,0.6,0.9,0.9,1.1c0.4,0.2,0.4,0.3,0.5,0.4
				c0,0.2-0.2,0.4-0.4,0.4c-0.3,0-0.5,0-0.8-0.1l-0.2-0.1l-0.2,1l0.1,0.1c0.3,0.2,0.7,0.2,1.1,0.2l0,0c0.9-0.1,1.5-0.8,1.3-1.7
				C415.6,578.5,415.3,578.1,414.8,577.9L414.8,577.9z"/>
			<path class="st8" d="M419.2,577.3L419.2,577.3c0-0.3-0.1-0.5-0.2-0.7c-0.1-0.2-0.2-0.4-0.4-0.5c-0.1-0.1-0.3-0.2-0.5-0.3
				c-0.2,0-0.4-0.1-0.6,0c-0.3,0-0.6,0.2-0.8,0.3s-0.4,0.4-0.6,0.7c-0.1,0.3-0.2,0.6-0.3,0.9c-0.1,0.3-0.1,0.7,0,1.1
				c0.1,0.6,0.3,1,0.6,1.2c0.3,0.3,0.7,0.4,1.2,0.3c0.3,0,0.6-0.2,0.8-0.3c0.2-0.2,0.4-0.4,0.6-0.7c0.1-0.3,0.2-0.6,0.3-0.9
				C419.2,578,419.2,577.7,419.2,577.3L419.2,577.3z M418.1,578.1c0,0.2-0.1,0.4-0.1,0.6c-0.1,0.2-0.1,0.3-0.2,0.4
				c-0.1,0.1-0.2,0.1-0.3,0.1c-0.2,0-0.3,0-0.3-0.1c-0.1-0.1-0.1-0.3-0.2-0.5c0-0.2,0-0.4,0-0.6c0-0.2,0.1-0.4,0.1-0.5
				c0.1-0.1,0.1-0.3,0.2-0.4c0.1-0.1,0.2-0.1,0.3-0.1c0.1,0,0.2,0,0.3,0.1c0.1,0.1,0.1,0.2,0.2,0.5
				C418.1,577.7,418.1,577.9,418.1,578.1L418.1,578.1z"/>
			<path class="st8" d="M402.3,577.8l0,0.5l-0.1,1.1l-0.8,0.1l0.1-1.6l-1.1,0.1l-0.3,4.5l1.1-0.1l0.1-1.7l0.8-0.1l-0.1,1.7l1.2-0.2
				c0,0-0.1-0.1-0.1-0.2c0-0.1,0.3-4.3,0.3-4.3L402.3,577.8z"/>
			<path class="st8" d="M396.7,582.7c0-0.1,0.3-4.3,0.3-4.3s-0.7,0.1-1.1,0.1l-0.3,3.8l0,0.6l1.1-0.1L396.7,582.7z"/>
			<path class="st8" d="M406.7,581.5L406.7,581.5c0-0.1-1-4.1-1-4.1l-0.8,0.1l-1.7,4.7l1.1-0.1l0.3-0.8l1-0.1l0.2,0.6l0,0.2l1-0.1
				L406.7,581.5z M404.7,580.2l0.4-1.3l0.3,1.2L404.7,580.2z"/>
			<path class="st8" d="M394,580.6L394,580.6c0.2,0,0.5-0.1,0.5-0.5s-0.4-0.4-0.6-0.4c0,0-0.1,0-0.1,0s-0.1,0-0.2,0l-0.1,0.9
				C393.6,580.6,393.9,580.6,394,580.6L394,580.6z M395.5,579.9c0,0.7-0.4,1.1-0.9,1.3l0.4,0.7l0.6,1.1l-1.1,0.1l-0.6-1l-0.4-0.7
				l-0.1,1l-0.1,0.8l-1.1,0.1l0.3-4.5l0.1,0c0.2,0,0.5-0.1,0.7-0.1l0,0l0.5-0.1C394.9,578.7,395.5,579.2,395.5,579.9L395.5,579.9z"
				/>
			<path class="st8" d="M408.3,578.7L408.3,578.7c0.2,0,0.5-0.1,0.5-0.5s-0.4-0.4-0.6-0.4c0,0-0.1,0-0.1,0s-0.1,0-0.2,0l-0.1,0.9
				C407.9,578.8,408.3,578.7,408.3,578.7L408.3,578.7z M409.8,578.1c0,0.7-0.4,1.1-0.9,1.3l0.4,0.7l0.6,1.1l-1.1,0.1l-0.6-1
				l-0.4-0.7l-0.1,1l-0.1,0.8l-1.1,0.1l0.3-4.5l0.1,0c0.2,0,0.5-0.1,0.7-0.1l0,0l0.5-0.1C409.2,576.9,409.8,577.4,409.8,578.1
				L409.8,578.1z"/>
			<path class="st8" d="M421.5,575.3l0,0.6l-0.1,1.4l-1.1-1.8l-0.8,0.1c0,0,0,0,0,0l0,0l-0.3,3.8l0,0.6l1.1-0.1l0,0l0-0.2
				c0-0.1,0.1-0.9,0.1-1.7l1.1,1.8l0.8-0.1l0.3-4.5L421.5,575.3z"/>
		</g>
		<g>
			<path class="st7" d="M377.9,601.3C377.9,601.3,377.9,601.4,377.9,601.3C377.9,601.4,377.9,601.4,377.9,601.3L377.9,601.3l0.1,0.4
				l0,0c0,0,0,0,0,0c0,0,0,0,0,0l-0.1,0.2c0,0,0,0,0,0c0,0,0,0,0,0l0,0l-0.1,0l-0.2,0c0,0,0,0,0,0c0,0,0,0,0,0l0,0.2c0,0,0,0,0,0
				l-0.2,0c0,0,0,0,0,0l0-0.1l-0.1-0.6l0-0.2c0,0,0,0,0,0s0,0,0,0l0.5-0.1l0.1,0l0,0c0,0,0,0,0,0c0,0,0,0,0,0L377.9,601.3z
				 M377.7,601.7l0-0.3l-0.3,0l0,0.3L377.7,601.7z"/>
			<path class="st7" d="M378.8,601.9C378.8,601.9,378.8,601.9,378.8,601.9C378.8,601.9,378.8,601.9,378.8,601.9l0.1,0.2c0,0,0,0,0,0
				c0,0,0,0,0,0l-0.7,0.1c0,0,0,0,0,0l-0.1-1c0,0,0,0,0,0l0.2,0c0,0,0,0,0,0l0.1,0.7c0,0,0,0,0,0c0,0,0,0,0,0L378.8,601.9z"/>
			<path class="st7" d="M379.7,601.1C379.7,601.1,379.7,601.1,379.7,601.1C379.7,601.1,379.7,601.2,379.7,601.1L379.7,601.1
				L379.7,601.1l0.1,0.9c0,0,0,0,0,0c0,0,0,0,0,0l-0.2,0c0,0,0,0,0,0c0,0,0,0,0,0l0-0.3c0,0,0,0,0,0c0,0,0,0,0,0l-0.3,0c0,0,0,0,0,0
				c0,0,0,0,0,0l0,0.3c0,0,0,0,0,0s0,0,0,0l-0.2,0c0,0,0,0,0,0s0,0,0,0l-0.1-0.8l0,0l0,0c0,0,0,0,0,0s0,0,0,0l0.1-0.2c0,0,0,0,0,0
				c0,0,0,0,0,0l0,0l0.1,0l0.3,0l0,0l0,0c0,0,0,0,0,0c0,0,0,0,0,0L379.7,601.1z M379.4,601.2l-0.4,0l0,0.3l0.4,0L379.4,601.2z"/>
			<path class="st7" d="M380.6,600.8C380.6,600.9,380.6,600.9,380.6,600.8l0,0.2l0,0.3l0,0.1c0,0,0,0,0,0c0,0,0,0,0,0l-0.1,0.2
				c0,0,0,0,0,0c0,0,0,0,0,0l0,0l0,0l0,0l0,0l0,0.1l0,0.2c0,0,0,0,0,0c0,0,0,0,0,0l-0.2,0c0,0,0,0,0,0c0,0,0,0,0,0l0-0.2l0-0.1l0,0
				l0,0l0,0l0,0c0,0,0,0,0,0c0,0,0,0,0,0l-0.2-0.1c0,0,0,0,0,0s0,0,0,0l0,0l0-0.3l0-0.2c0,0,0,0,0,0s0,0,0,0l0.2,0c0,0,0,0,0,0
				c0,0,0,0,0,0l0,0.1l0,0.2l0,0.2c0,0,0,0,0,0c0,0,0,0,0,0l0.3,0c0,0,0,0,0,0l0-0.1l0-0.2l0-0.1c0,0,0,0,0,0s0,0,0,0L380.6,600.8
				C380.6,600.8,380.6,600.8,380.6,600.8z"/>
			<path class="st7" d="M381.1,601l0,0.2c0,0,0,0,0,0l0.1,0l0.1,0l0.2,0c0,0,0,0,0,0s0,0,0,0l0,0.2c0,0,0,0,0,0l-0.2,0l-0.1,0
				l-0.2,0c0,0,0,0,0,0l0,0.2c0,0,0,0,0,0l0.1,0l0.2,0l0.2,0c0,0,0,0,0,0c0,0,0,0,0,0l0,0.2c0,0,0,0,0,0c0,0,0,0,0,0l-0.2,0l-0.4,0
				l0,0c0,0,0,0,0,0c0,0,0,0,0,0l-0.2-0.1c0,0,0,0,0,0c0,0,0,0,0,0l0,0l-0.1-0.5l0-0.1c0,0,0,0,0,0c0,0,0,0,0,0l0.1-0.2c0,0,0,0,0,0
				c0,0,0,0,0,0l0,0l0.4-0.1l0.1,0c0,0,0,0,0,0c0,0,0,0,0,0l0,0.2c0,0,0,0,0,0c0,0,0,0,0,0l-0.1,0l-0.2,0L381.1,601
				C381.1,601,381.1,601,381.1,601z"/>
			<path class="st7" d="M382.8,601.6C382.8,601.6,382.8,601.6,382.8,601.6C382.8,601.6,382.8,601.6,382.8,601.6l-0.3,0.1
				c0,0,0,0,0,0c0,0,0,0,0,0l-0.2-0.3c0,0,0,0,0,0l-0.2,0c0,0,0,0,0,0l0,0.3c0,0,0,0,0,0l-0.2,0c0,0,0,0,0,0l-0.1-0.5l0-0.3l0-0.2
				c0,0,0,0,0,0c0,0,0,0,0,0l0.7-0.1c0,0,0,0,0,0c0,0,0,0,0,0l0.2,0.1c0,0,0,0,0,0s0,0,0,0l0,0.2l0,0.1l0,0c0,0,0,0,0,0c0,0,0,0,0,0
				l-0.1,0.2L382.8,601.6z M382.4,600.9l-0.4,0l0,0.3l0.2,0l0.2,0l0,0l0,0l0,0L382.4,600.9L382.4,600.9z"/>
			<path class="st7" d="M383.1,600.9C383.1,600.9,383.1,600.9,383.1,600.9C383.1,600.9,383.1,600.9,383.1,600.9l0.1,0.2c0,0,0,0,0,0
				c0,0,0,0,0,0l-0.2,0c0,0,0,0,0,0c0,0,0,0,0,0l0-0.2c0,0,0,0,0,0c0,0,0,0,0,0L383.1,600.9z M383.1,601.3
				C383.1,601.3,383.2,601.3,383.1,601.3l0.1,0.2c0,0,0,0,0,0l-0.2,0c0,0,0,0,0,0l0-0.2c0,0,0,0,0,0L383.1,601.3z"/>
		</g>
		<path class="st8" d="M396.4,587.4C396.3,587.4,396.3,587.4,396.4,587.4l-0.1,0.6c0,0,0,0.1,0.1,0.1l1.1-0.1c0.1,0,0.2-0.1,0.2-0.1
			c0-0.1,0.1-0.2,0.1-0.3c0-0.1,0-0.2,0-0.2c0,0-0.1-0.1-0.2,0L396.4,587.4z M398,586.5c0.1,0,0.2,0,0.3,0.1
			c0.1,0.1,0.2,0.1,0.3,0.3c0,0.1,0.1,0.3,0,0.6c0,0.4-0.1,0.6-0.2,0.8s-0.3,0.3-0.6,0.3l-1.4,0.2c0,0-0.1,0-0.1,0.1l0,0.5
			c0,0,0,0.1-0.1,0.1l-0.7,0.1c0,0-0.1,0-0.1-0.1l0.2-2.6c0,0,0-0.1,0.1-0.1l2-0.3C397.8,586.5,397.9,586.5,398,586.5z M400.4,588.9
			l-0.6,0.1c0,0-0.1,0-0.1-0.1l0.2-1.9c0,0,0-0.1-0.1-0.1l-0.9,0.1c0,0-0.1,0-0.1-0.1l0-0.5c0,0,0-0.1,0.1-0.1l2.9-0.4
			c0,0,0.1,0,0.1,0.1l0,0.5c0,0,0,0.1-0.1,0.1l-0.9,0.1c0,0-0.1,0-0.1,0.1L400.4,588.9C400.5,588.8,400.5,588.9,400.4,588.9z
			 M404.2,587.5c0-0.2-0.1-0.2-0.3-0.2l-1.3,0.1c-0.3,0-0.5,0-0.6-0.1c-0.1-0.1-0.1-0.3-0.1-0.6c0-0.2,0-0.3,0.1-0.4
			c0-0.1,0.1-0.2,0.2-0.3c0.1-0.1,0.2-0.1,0.3-0.2c0.1,0,0.3-0.1,0.6-0.1l2-0.3c0,0,0.1,0,0.1,0.1l0,0.5c0,0,0,0.1-0.1,0.1l-1.9,0.2
			c-0.2,0-0.4,0-0.4,0.2c0,0.2,0.2,0.1,0.3,0.1l1.2-0.1c0.3,0,0.5,0,0.6,0.1c0.1,0.1,0.2,0.3,0.1,0.6c0,0.2,0,0.3-0.1,0.4
			c-0.1,0.1-0.1,0.2-0.2,0.3c-0.1,0.1-0.2,0.1-0.3,0.1c-0.1,0-0.3,0.1-0.5,0.1l-2.1,0.3c0,0-0.1,0-0.1-0.1l0-0.5c0,0,0-0.1,0.1-0.1
			l2.1-0.3C404.1,587.8,404.2,587.7,404.2,587.5z"/>
		<g>
			<path class="st8" d="M396.6,591.4C396.6,591.4,396.6,591.4,396.6,591.4l0,0.1l0,0.2l0,0.1c0,0,0,0,0,0c0,0,0,0,0,0l-0.2,0.2
				c0,0,0,0,0,0c0,0,0,0,0,0l-0.1,0l-0.5,0.1l-0.3,0c0,0,0,0-0.1,0l0-0.3c0,0,0,0,0,0c0,0,0,0,0,0l0.4,0l0.2,0l0.2,0c0,0,0,0,0,0
				c0,0,0,0,0,0l0-0.2c0,0,0,0,0,0c0,0,0,0,0,0l-0.2,0l-0.3,0l0,0c0,0,0,0,0,0c0,0,0,0,0,0l-0.2-0.2c0,0,0,0,0,0c0,0,0,0,0,0l0,0
				l0-0.3l0,0c0,0,0,0,0,0c0,0,0,0,0,0l0.2-0.2c0,0,0,0,0,0c0,0,0,0,0,0l0,0l0.7-0.1l0.1,0c0,0,0,0,0,0c0,0,0,0,0,0l0,0.3
				c0,0,0,0,0,0c0,0,0,0,0,0l-0.2,0l-0.4,0.1l-0.2,0c0,0,0,0,0,0c0,0,0,0,0,0l0,0.2c0,0,0,0,0,0c0,0,0,0,0,0l0.2,0l0.3,0l0.1,0
				c0,0,0,0,0,0c0,0,0,0,0,0L396.6,591.4C396.6,591.3,396.6,591.4,396.6,591.4z"/>
			<path class="st8" d="M398.4,590.2C398.4,590.2,398.4,590.2,398.4,590.2l0,0.2l0,0.1l0,0.1c0,0,0,0,0,0c0,0,0,0,0,0l-0.2,0
				l-0.5,0.1l-0.1,0c0,0,0,0,0,0l0,0.3c0,0,0,0,0,0l0.7-0.1c0,0,0,0,0,0c0,0,0,0,0,0l0,0.2c0,0,0,0,0,0c0,0,0,0,0,0l-0.7,0.1
				c0,0,0,0,0,0l0,0.1l0,0l0,0.1c0,0,0,0,0,0l0.1,0l0.5-0.1l0.2,0c0,0,0,0,0,0c0,0,0,0,0,0l0,0.1l0,0.1l0,0.1c0,0,0,0,0,0
				c0,0,0,0,0,0l-0.1,0l-0.9,0.1l-0.1,0c0,0,0,0-0.1,0l0-0.1l-0.2-1.4l0-0.1c0,0,0,0,0,0c0,0,0,0,0,0l0.2,0l0.9-0.1L398.4,590.2
				C398.3,590.2,398.3,590.2,398.4,590.2z"/>
			<path class="st8" d="M400.2,591.2C400.2,591.2,400.2,591.2,400.2,591.2C400.3,591.2,400.3,591.3,400.2,591.2l0.1,0.4c0,0,0,0,0,0
				c0,0,0,0,0,0l-1,0.1c0,0,0,0-0.1,0l-0.2-1.6c0,0,0,0,0-0.1l0.3,0c0,0,0,0,0.1,0l0.2,1.2c0,0,0,0,0,0c0,0,0,0,0,0L400.2,591.2z"/>
			<path class="st8" d="M401.8,589.8C401.8,589.8,401.8,589.8,401.8,589.8l0,0.2l0,0.1l0,0.1c0,0,0,0,0,0c0,0,0,0,0,0l-0.2,0
				l-0.5,0.1l-0.1,0c0,0,0,0,0,0l0,0.3c0,0,0,0,0,0l0.7-0.1c0,0,0,0,0,0c0,0,0,0,0,0l0,0.2c0,0,0,0,0,0c0,0,0,0,0,0l-0.7,0.1
				c0,0,0,0,0,0l0,0.1l0,0l0,0.1c0,0,0,0,0,0l0.1,0l0.5-0.1l0.2,0c0,0,0,0,0,0c0,0,0,0,0,0l0,0.1l0,0.1l0,0.1c0,0,0,0,0,0
				c0,0,0,0,0,0l-0.1,0l-0.9,0.1l-0.1,0c0,0,0,0-0.1,0l0-0.1l-0.2-1.4l0-0.1c0,0,0,0,0,0c0,0,0,0,0,0l0.2,0l0.9-0.1L401.8,589.8
				C401.8,589.8,401.8,589.8,401.8,589.8z"/>
			<path class="st8" d="M402.9,590C402.9,590,402.9,590,402.9,590l0.1,0.8c0,0,0,0,0,0c0,0,0,0,0,0l0.8-0.1c0,0,0,0,0,0c0,0,0,0,0,0
				l0,0.3c0,0,0,0,0,0c0,0,0,0,0,0l-0.7,0.1l-0.1,0l0,0c0,0,0,0,0,0c0,0,0,0,0,0l-0.2-0.2c0,0,0,0,0,0c0,0,0,0,0,0l0,0l0-0.3
				l-0.1-0.6l0-0.1l0-0.1c0,0,0,0,0,0c0,0,0,0,0,0l0.2-0.2c0,0,0,0,0,0c0,0,0,0,0,0l0,0l0,0l0,0l0,0l0.1,0l0.8-0.1c0,0,0,0,0,0
				c0,0,0,0,0,0l0,0.3c0,0,0,0,0,0c0,0,0,0,0,0L402.9,590C402.9,590,402.9,590,402.9,590z"/>
			<path class="st8" d="M405.5,589.6C405.5,589.6,405.5,589.7,405.5,589.6C405.5,589.7,405.5,589.7,405.5,589.6l-0.4,0.1
				c0,0,0,0,0,0c0,0,0,0,0,0l0.2,1.2c0,0,0,0,0,0c0,0,0,0,0,0l-0.3,0c0,0,0,0,0,0c0,0,0,0,0,0l-0.2-1.2c0,0,0,0,0,0c0,0,0,0,0,0
				l-0.3,0c0,0,0,0,0,0c0,0,0,0,0,0l0-0.3c0,0,0,0,0-0.1l0.3,0l0.1,0l0.3,0l0.1,0l0.3,0c0,0,0,0,0,0c0,0,0,0,0,0L405.5,589.6z"/>
		</g>
		<path class="st9" d="M222.5,225L222.5,225c-0.3-0.4,0.9,1.2,1.1,1.8c0.1,0.1,0.1,0.3-0.1,0.3l-3.5-0.2c-0.2,0-0.3-0.1-0.3-0.2
			c0,0-0.1-0.1-0.1-0.1c-1.7-3-3-3.7-5.7-4.6c-0.1,0-0.2-0.2-0.1-0.3c0.2-0.3,0.6-0.9,0.7-1c0,0,0.1-0.1,0.2-0.1
			c0.6,0,1.2,0.1,1.8,0c1.6-0.4,2-1.3,2-1.9c0-1-1.3-1.6-3.7-1.7c-1.7-0.1-2.4-0.1-4.6-0.2c-0.9,0-1.9-0.6-2.6-2.1
			c-0.1-0.2,0-0.4,0.2-0.4c1.9,0.1,6.2,0.3,9,0.5c4.2,0.4,5.1,2.2,5.1,3.7c-0.1,2.1-1.8,3-2.5,3.4
			C220.6,222.7,221.5,223.7,222.5,225 M225.3,211.7l-18.6-0.9c-0.1,0-0.2,0-0.2,0.1c-0.1,0.1-0.1,0.1-0.1,0.2l-0.9,18.5
			c0,0.1,0,0.2,0.1,0.2c0.1,0.1,0.1,0.1,0.2,0.1l18.6,0.9c0.1,0,0.2,0,0.2-0.1c0.1-0.1,0.1-0.1,0.1-0.2l0.9-18.5
			c0-0.1,0-0.2-0.1-0.2C225.5,211.7,225.4,211.7,225.3,211.7z M206.7,209.8l18.6,0.9c0.4,0,0.7,0.2,0.9,0.4c0.2,0.3,0.4,0.6,0.4,1
			l-0.9,18.5c0,0.4-0.2,0.7-0.4,0.9l0,0c-0.3,0.2-0.6,0.4-1,0.4l-18.6-0.9c-0.4,0-0.7-0.2-0.9-0.4c-0.2-0.3-0.4-0.6-0.4-1l0.9-18.5
			c0-0.4,0.2-0.7,0.4-0.9l0,0C206,209.9,206.3,209.8,206.7,209.8z M214.8,219.4c0,0,0,0.1,0,0.1c0,0,0,0,0,0c-0.3,0.3-3,3.2-4.1,6.7
			c0,0.1-0.1,0.2-0.3,0.2c-0.3,0-2.2-0.1-3.1-0.2c-0.2,0-0.2-0.2-0.1-0.4c1.4-2.2,3-4.3,5.1-6.5c0.5-0.4,0.7-0.3,1.2-0.3
			c0.2,0,0.9,0,1.3,0C214.8,219.2,214.8,219.3,214.8,219.4z"/>
		<path class="st10" d="M288.2,195.9c0,0-2.1-3.6-6.9-1.4c-4.9,2.2-3.9,10.8,0,11.4C285.2,206.6,290.3,203.4,288.2,195.9z"/>
		<path class="st10" d="M280.2,230.7c0,0-2.1-3.6-6.9-1.4c-4.9,2.2-3.9,10.8,0,11.4C277.2,241.4,282.2,238.2,280.2,230.7z"/>
		<path class="st10" d="M268.3,342.2c0,0-2.1-3.6-6.9-1.4c-4.9,2.2-3.9,10.8,0,11.4C265.3,352.9,270.3,349.7,268.3,342.2z"/>
		<path class="st10" d="M264.8,433.6c0,0-2.1-3.6-6.9-1.4c-4.9,2.2-3.9,10.8,0,11.4C261.8,444.2,266.8,441,264.8,433.6z"/>
		<path class="st10" d="M263.4,524.8c0,0-3-2.8-7,0.7c-4,3.5-0.6,11.5,3.4,10.9C263.6,535.9,267.5,531.3,263.4,524.8z"/>
		<path class="st10" d="M270.5,612.2c0,0-3-2.8-7,0.7c-4,3.5-0.6,11.5,3.4,10.9C270.8,623.3,274.7,618.8,270.5,612.2z"/>
		<path class="st10" d="M283.3,197.5c0,0,1.6,2-1.4,4.3"/>
		<path class="st10" d="M276.2,231.9c0,0,2.1,5.3-1.8,5.6"/>
		<path class="st10" d="M264.3,342.9c0,0.6,3.5,5.8-3.1,6.3"/>
		<path class="st10" d="M259.9,434.3c0,0,5.7,4.2-1.4,5.2"/>
		<path class="st10" d="M260.3,526.3c0,0,3.4,3.9-0.4,6.1"/>
		<path class="st10" d="M267,614.7c0,0,4.5,1.9,0,7.1"/>
		<path class="st10" d="M105.8,678.1"/>
	</g>
</g>
<g>
	<path class="st8" d="M619.5,216.6c0,0,7.4-7-25.9-5.6c-33.3,1.4-69.5,4.1-85.3,7s-50.3,4-55.9,3c-5.7-1-47.4-2.3-49.8,8.2
		c-2.4,10.4,5.5,18.8,5.6,36.1c0.2,17.3-1.4,30.1-13.8,73.2s-18.8,76-22.3,126.4s-7.2,83.3-1.7,139.2
		c5.5,55.9,21.5,136.3,28.1,149.8c6.5,13.6,9.7,34.6,9,44.9c-0.7,10.3,0.3,17.5,2.2,23c1.8,5.5,2.6,15.4,4.9,18.6
		c2.3,3.2,16.7,6.5,19.9,11s18.3,3.3,24.7,6.4c6.4,3.2,13.2,4.2,18.1,3.4c4.9-0.8,12.4-11.8,16.7-16c4.3-4.2,4.1-6.4,4.1-6.4
		s-12.9-52.5-10.8-63.2c2.1-10.7,0.8-28.4-3.8-39.7s-6.7-26.2-8.1-35.1s-2.5-66.7-2.5-66.7s-1.8-61.6,1.6-69.4
		c3.5-7.7,23.8-63,23.8-63s10.3,53.4,11.4,66.9c1.1,13.5,10.6,84.2,11.3,90.6c0.7,6.4,9.9,103.3,9.9,103.3s4.4,68.2,4.1,73.7
		c-0.4,5.6-4.8,15.5-6.5,21.7s-3,19.2,6.1,25.5c9.1,6.2,50.2,16.3,56.4,15.9c6.2-0.5,18.8-4.1,23.2-8.4c4.4-4.3,4.3-6.2,3.6-21.9
		s2.1-24.1,2.6-31.9s1.2-30.7,2.2-45.6c1-14.8-2.1-68.8-3.5-82.2c-1.3-13.5-2.3-52.6-2.6-68.7c-0.3-16.1-0.5-93.7,1.5-117.2
		c2-23.5,8.5-116,9.7-120.6s8.5-87,6.7-105.4c-1.8-18.4-3.9-37.6-7-42.1c-3.1-4.4-5.8-8.6-6.1-12.8
		C621.1,238.4,619.5,216.6,619.5,216.6z"/>
	<g>
		<path class="st3" d="M437.5,280c0,0-3.6,31.9-4.5,55.4c-0.8,23.5,2.2,43.4,2.2,43.4l16.8-1.8c0,0,1.4-55.1,2.2-70.5
			c0.8-15.4,2.8-26.6,2.8-26.6"/>
		<path class="st3" d="M367.8,546.5c0,0,8.9,10,34.7,10.2c25.8,0.2,60.1,0,60.1,0"/>
		<path class="st3" d="M397,749.1c0,0,2.9,0.4,18.2-2.1s18.4,0.3,32.4-4.2c14-4.5,14.9-6.7,14.9-6.7"/>
		<path class="st3" d="M531.5,768.9c0,0,18.1,13.4,38.6,9.2s48.5-15.4,48.5-15.4"/>
		<path class="st3" d="M511.3,579.8c0,0,4.1,12.7,34.7,8.8c30.6-3.9,61.9-15.8,61.9-15.8"/>
		<path class="st4" d="M502.6,235.5c0,0,37-5.2,37-5.2l5,17.2l-7.1,13.4l-30.5,3.4C507,264.3,500.3,252.6,502.6,235.5z"/>
		<path class="st4" d="M410.6,239.1l8.7,1.2c0,0-0.1,14.6,3,19.7s-1.7,8.6-1.7,8.6S409.9,252.8,410.6,239.1z"/>
		<path class="st4" d="M422.4,241.6c0,0,3.9,24.2,6.6,26.9c2.7,2.7,8.9,3.7,10.8,4.4c1.9,0.7,2.7,0,2.7,0s-6.7-14.9-5.6-22.8
			c1.2-7.9,1.2-7.9,1.2-7.9L422.4,241.6z"/>
		<path class="st4" d="M446.6,242.8c0,0.8-0.8,9.1,1.2,17.9c2,8.7,5.7,14.1,5.7,14.1s5.1-2.9,11.2-3.8c6.1-0.8,13.8-2.6,13.8-2.6
			s-4-19.1-4.1-22.3c-0.1-3.2-0.1-3.2-0.1-3.2l0-1L446.6,242.8z"/>
		<path class="st4" d="M440.9,242.6c0,0-3.2,4.8,0,18.5c3.2,13.7,2.6,12.6,3.2,13.7c0.6,1.1,9.3,0,9.3,0s-6.2-6.3-8.5-20.1
			c-2.3-13.9,1.6-11.9,1.6-11.9L440.9,242.6z"/>
		<path class="st5" d="M472.3,416c0,0,9.1,29,11.2,45.6c2.1,16.6,12,31.9,16.2,44.8c4.1,12.9,18.2,120.2,22.4,162.1
			c4.1,41.9,17.4,170,11.6,177.5c-5.8,7.5-6.2,17-5.4,29.9c0.8,12.9,46.4,19.9,60.1,23.2s29.4-11.6,29.4-11.6s0-25.3,0-33.2
			s4.1-14.9,2.9-31.1c-1.2-16.2,3.3-33.2,2.9-48.9c-0.4-15.8-7.9-90.8-7.5-118.6c0.4-27.8-1.7-79.6-0.8-96.2
			c0.8-16.6,10.4-126.5,16.6-195.3s-0.4-102.4-6.2-111.1c-5.8-8.7-5.4-29.4-6.2-36.5c-0.8-7-7.9-5.4-28.6-5.4c-20.7,0-39,1.7-64.3,5
			c-25.3,3.3-77.5,5.4-103.7,5.4c-26.1,0-20.7,14.1-20.7,14.1s8.7,24,6.2,46c-2.5,22-31.5,106.6-34.8,161.7s-12.9,116.9,3.3,208.6
			s20.3,98.7,26.1,114.9c5.8,16.2,3.3,48.1,7.5,58c4.1,10-1.7,15.8,11.2,19.5c12.9,3.7,10.8,10.4,26.5,11.6
			c15.8,1.2,21.6,8.3,30.3,5c8.7-3.3,19.5-22,19.5-22s-12.4-47.3-10.4-66.3c2.1-19.1-10.4-51.8-11.6-64.3c-1.2-12.4-5-118.6-2.5-136
			s21-60.6,21-60.6l3.5-10.7"/>
		<path class="st5" d="M408.2,261.7c0,0,11.4,18.9,37.8,18.4s90.7-9.8,113.4-15.5s44.5-10.6,52.6-13.2s11.5-2.8,11.5-2.8"/>
		<path class="st5" d="M405.3,225.7c0,0,6.2,11.8,19.7,12.1c13.5,0.3,40.8,1.1,61.5-3.2c20.7-4.3,74.1-12.6,92.5-15.2
			c18.4-2.6,32.2-8.3,32.2-8.3"/>
		<line class="st5" x1="608.7" y1="252.3" x2="603.7" y2="213.8"/>
		<path class="st5" d="M502.9,231.6c0,0-3.8,34.7,13,41.7"/>
		<path class="st5" d="M487.9,234.4c0,0-0.3,32.1,12.2,40.4"/>
		<path class="st5" d="M474.5,236.6c0,0-2.1,31.2,10,40.2"/>
		<path class="st5" d="M410.1,231.6c0,0,0.5,18.5,5.4,26.8c4.9,8.3,7.6,16.4,7.6,16.4"/>
		<path class="st5" d="M482.2,453.4c0,0-26-18.6-35-52.4"/>
		<path class="st5" d="M450.3,377.1c3.8,31.4-6.9,23.8-6.9,23.8"/>
		<path class="st5" d="M482.2,457.9c0,0-18.8,78-21.2,114.2c-2.4,36.2-7.2,74.9,0,132.5s5.2,97.7,12.1,119.4
			c6.9,21.7,5.5,36.9,5.5,36.9"/>
		<path class="st5" d="M600,254.6c0,0,8.9,3.8,11.2,18.7c2.3,14.8,5.7,16.9,5,30.4c-0.7,13.5-4.1,103.5-5.5,166.3
			s-5.5,159.1-2.1,170.1c3.5,11,0.7,46.2,3.1,57.6c2.4,11.4-1.5,41.2,4.6,49.3c6.1,8.2-2.2,46.6-1.5,61.8
			c0.7,15.2-4.5,44.9-3.5,53.5c1,8.6,2,28.7,2,28.7"/>
	</g>
</g>
</svg>
